<svg width="36" height="37" viewBox="0 0 36 37" fill="none" xmlns="http://www.w3.org/2000/svg">
<g clip-path="url(#clip0_17_6)">
<path d="M30.3526 9.14803C31.0006 7.35553 29.2636 5.61853 27.4711 6.26803L5.56356 14.191C3.76506 14.842 3.54756 17.296 5.20206 18.2545L12.1951 22.303L18.4396 16.0585C18.7225 15.7853 19.1014 15.6341 19.4947 15.6375C19.888 15.6409 20.2642 15.7987 20.5423 16.0768C20.8204 16.3549 20.9782 16.7311 20.9816 17.1244C20.985 17.5177 20.8338 17.8966 20.5606 18.1795L14.3161 24.424L18.3661 31.417C19.3231 33.0715 21.7771 32.8525 22.4281 31.0555L30.3526 9.14803Z" fill="#9C8070"/>
</g>
<defs>
<clipPath id="clip0_17_6">
<rect width="36" height="36" fill="white" transform="translate(0 0.619019)"/>
</clipPath>
</defs>
</svg>
